<svg xmlns="http://www.w3.org/2000/svg" viewBox="0 0 100 100" width="100" height="100">
  <!-- Background circle with gradient -->
  <defs>
    <linearGradient id="bgGradient" x1="0%" y1="0%" x2="100%" y2="100%">
      <stop offset="0%" style="stop-color:#c026d3;stop-opacity:1" />
      <stop offset="100%" style="stop-color:#7c3aed;stop-opacity:1" />
    </linearGradient>
    <linearGradient id="toolGradient" x1="0%" y1="0%" x2="100%" y2="100%">
      <stop offset="0%" style="stop-color:#fbbf24;stop-opacity:1" />
      <stop offset="100%" style="stop-color:#f59e0b;stop-opacity:1" />
    </linearGradient>
    <linearGradient id="aiGradient" x1="0%" y1="0%" x2="100%" y2="100%">
      <stop offset="0%" style="stop-color:#06b6d4;stop-opacity:1" />
      <stop offset="100%" style="stop-color:#0891b2;stop-opacity:1" />
    </linearGradient>
  </defs>
  
  <!-- Main background -->
  <circle cx="50" cy="50" r="48" fill="url(#bgGradient)" stroke="#e2e8f0" stroke-width="2"/>
  
  <!-- AI Brain/Circuit pattern -->
  <g fill="none" stroke="url(#aiGradient)" stroke-width="2" stroke-linecap="round">
    <!-- Central node -->
    <circle cx="50" cy="50" r="4" fill="url(#aiGradient)"/>
    
    <!-- Neural network connections -->
    <path d="M30 35 L50 50 L70 35"/>
    <path d="M30 65 L50 50 L70 65"/>
    <path d="M35 30 L50 50 L65 30"/>
    <path d="M35 70 L50 50 L65 70"/>
    
    <!-- Outer nodes -->
    <circle cx="30" cy="35" r="2.5" fill="url(#aiGradient)"/>
    <circle cx="70" cy="35" r="2.5" fill="url(#aiGradient)"/>
    <circle cx="30" cy="65" r="2.5" fill="url(#aiGradient)"/>
    <circle cx="70" cy="65" r="2.5" fill="url(#aiGradient)"/>
    <circle cx="35" cy="30" r="2.5" fill="url(#aiGradient)"/>
    <circle cx="65" cy="30" r="2.5" fill="url(#aiGradient)"/>
    <circle cx="35" cy="70" r="2.5" fill="url(#aiGradient)"/>
    <circle cx="65" cy="70" r="2.5" fill="url(#aiGradient)"/>
  </g>
  
  <!-- Tool icons overlay -->
  <g fill="url(#toolGradient)" opacity="0.9">
    <!-- Wrench tool -->
    <path d="M25 20 L28 23 L32 19 L29 16 Z" stroke="url(#toolGradient)" stroke-width="1"/>
    <rect x="26" y="21" width="1.5" height="8" rx="0.5" transform="rotate(45 26.75 25)"/>
    
    <!-- Gear tool -->
    <g transform="translate(68, 22)">
      <circle cx="0" cy="0" r="4" fill="none" stroke="url(#toolGradient)" stroke-width="1.5"/>
      <circle cx="0" cy="0" r="1.5" fill="url(#toolGradient)"/>
      <rect x="-0.5" y="-6" width="1" height="2" fill="url(#toolGradient)"/>
      <rect x="-0.5" y="4" width="1" height="2" fill="url(#toolGradient)"/>
      <rect x="-6" y="-0.5" width="2" height="1" fill="url(#toolGradient)"/>
      <rect x="4" y="-0.5" width="2" height="1" fill="url(#toolGradient)"/>
    </g>
    
    <!-- Code brackets -->
    <path d="M22 75 L18 78 L22 81" stroke="url(#toolGradient)" stroke-width="2" fill="none"/>
    <path d="M78 75 L82 78 L78 81" stroke="url(#toolGradient)" stroke-width="2" fill="none"/>
  </g>
  
  <!-- Sparkle effects for AI magic -->
  <g fill="#fbbf24" opacity="0.8">
    <path d="M20 45 L22 47 L20 49 L18 47 Z"/>
    <path d="M82 55 L84 57 L82 59 L80 57 Z"/>
    <circle cx="75" cy="45" r="1"/>
    <circle cx="25" cy="55" r="1"/>
  </g>
</svg>